<svg width="30" height="29" viewBox="0 0 30 29" fill="none" xmlns="http://www.w3.org/2000/svg">
<path fill-rule="evenodd" clip-rule="evenodd" d="M29.999 20L30 24.252C30 27.174 28.11 29 24.58 29H4.916C1.89 29 0.001 27.174 0.001 24.252L0 20H0.933C3.136 20 4.995 18.445 4.995 16.418V12.582C4.995 10.555 3.136 9 0.933 9H0V4.748C0 1.826 1.89 0 4.915 0H24.58C27.606 0 30 1.826 30 4.748V9H29.067C26.865 9 25.007 10.555 25.007 12.582V16.152C25.007 18.179 26.866 20 29.067 20H30H29.999ZM22.989 12.563C22.989 8.918 19.852 6 16.029 6H13.972C10.149 6 7.012 8.92 7.012 12.563V19.353C7.012 22.995 10.149 26 13.972 26H16.029C19.852 26 22.989 22.995 22.989 19.352V12.563Z" fill="white"/>
</svg>
